<svg width="367" height="88" viewBox="0 0 367 88" fill="none" xmlns="http://www.w3.org/2000/svg">
<g clip-path="url(#clip0_202_217)">
<path d="M121.649 60.7715V70H93.2681V60.7715H121.649ZM97.333 16.6797V70H85.3945V16.6797H97.333ZM117.987 38.1396V47.0752H93.2681V38.1396H117.987ZM121.686 16.6797V25.9448H93.2681V16.6797H121.686ZM150.907 60.5518V43.5596C150.907 42.3633 150.724 41.3379 150.357 40.4834C149.991 39.6289 149.417 38.9575 148.636 38.4692C147.855 37.981 146.842 37.7368 145.597 37.7368C144.547 37.7368 143.631 37.9199 142.85 38.2861C142.093 38.6523 141.507 39.1772 141.092 39.8608C140.702 40.5444 140.506 41.3867 140.506 42.3877H129.081C129.081 40.6055 129.483 38.9453 130.289 37.4072C131.095 35.8691 132.242 34.5142 133.731 33.3423C135.245 32.1704 137.052 31.2671 139.151 30.6323C141.251 29.9731 143.607 29.6436 146.219 29.6436C149.32 29.6436 152.079 30.1685 154.496 31.2183C156.937 32.2437 158.866 33.7939 160.282 35.8691C161.698 37.9199 162.406 40.5078 162.406 43.6328V60.2222C162.406 62.6147 162.54 64.4946 162.809 65.8618C163.102 67.2046 163.517 68.3765 164.054 69.3774V70H152.518C151.981 68.8525 151.578 67.4365 151.31 65.752C151.041 64.043 150.907 62.3096 150.907 60.5518ZM152.335 45.8301L152.408 52.1289H146.732C145.462 52.1289 144.364 52.2876 143.436 52.605C142.533 52.9224 141.8 53.3618 141.239 53.9233C140.677 54.4604 140.262 55.0952 139.994 55.8276C139.75 56.5356 139.627 57.3169 139.627 58.1714C139.627 58.9771 139.823 59.7095 140.213 60.3687C140.604 61.0034 141.141 61.5039 141.825 61.8701C142.508 62.2363 143.302 62.4194 144.205 62.4194C145.694 62.4194 146.964 62.1265 148.014 61.5405C149.088 60.9546 149.918 60.2466 150.504 59.4165C151.09 58.562 151.383 57.7686 151.383 57.0361L154.129 61.7969C153.69 62.7734 153.153 63.7866 152.518 64.8364C151.883 65.8618 151.078 66.8262 150.101 67.7295C149.125 68.6084 147.94 69.3286 146.549 69.8901C145.182 70.4517 143.534 70.7324 141.605 70.7324C139.115 70.7324 136.856 70.2319 134.83 69.231C132.804 68.2056 131.18 66.8018 129.959 65.0195C128.763 63.2373 128.165 61.1865 128.165 58.8672C128.165 56.792 128.543 54.9487 129.3 53.3374C130.057 51.7261 131.192 50.3589 132.706 49.2358C134.244 48.1128 136.173 47.2705 138.492 46.709C140.812 46.123 143.521 45.8301 146.622 45.8301H152.335ZM193.055 30.376V38.396H169.544V30.376H193.055ZM174.927 20.5615H186.39V57.5854C186.39 58.6841 186.524 59.5264 186.792 60.1123C187.061 60.6982 187.5 61.1133 188.111 61.3574C188.721 61.5771 189.502 61.687 190.455 61.687C191.138 61.687 191.724 61.6626 192.212 61.6138C192.701 61.5649 193.152 61.5039 193.567 61.4307V69.707C192.591 70.0244 191.553 70.2686 190.455 70.4395C189.356 70.6348 188.16 70.7324 186.866 70.7324C184.4 70.7324 182.264 70.3296 180.457 69.5239C178.675 68.7183 177.308 67.4487 176.355 65.7153C175.403 63.9575 174.927 61.6748 174.927 58.8672V20.5615ZM222.642 58.9771C222.642 58.2446 222.41 57.5977 221.946 57.0361C221.506 56.4746 220.701 55.9619 219.529 55.498C218.381 55.0342 216.758 54.5703 214.658 54.1064C212.681 53.6914 210.837 53.1543 209.128 52.4951C207.419 51.8115 205.93 50.9937 204.661 50.0415C203.391 49.0649 202.402 47.9175 201.694 46.5991C200.986 45.2563 200.632 43.7305 200.632 42.0215C200.632 40.3613 200.986 38.7866 201.694 37.2974C202.427 35.8081 203.477 34.4897 204.844 33.3423C206.235 32.1948 207.92 31.2915 209.897 30.6323C211.899 29.9731 214.17 29.6436 216.709 29.6436C220.2 29.6436 223.215 30.1929 225.754 31.2915C228.293 32.3657 230.247 33.8794 231.614 35.8325C232.981 37.7612 233.665 39.9707 233.665 42.4609H222.239C222.239 41.4355 222.043 40.5444 221.653 39.7876C221.262 39.0308 220.664 38.4448 219.858 38.0298C219.053 37.5903 217.991 37.3706 216.672 37.3706C215.647 37.3706 214.744 37.5537 213.962 37.9199C213.206 38.2617 212.607 38.7378 212.168 39.3481C211.753 39.9585 211.545 40.6665 211.545 41.4722C211.545 42.0337 211.667 42.5464 211.912 43.0103C212.18 43.4497 212.583 43.8647 213.12 44.2554C213.682 44.6216 214.402 44.9512 215.281 45.2441C216.184 45.5371 217.283 45.8179 218.577 46.0864C221.335 46.5991 223.85 47.3193 226.121 48.2471C228.416 49.1748 230.247 50.4565 231.614 52.0923C233.005 53.728 233.701 55.8887 233.701 58.5742C233.701 60.332 233.298 61.9434 232.493 63.4082C231.711 64.873 230.576 66.1548 229.087 67.2534C227.598 68.3521 225.815 69.2065 223.74 69.8169C221.665 70.4272 219.321 70.7324 216.709 70.7324C212.974 70.7324 209.812 70.061 207.224 68.7183C204.636 67.3755 202.683 65.6909 201.365 63.6646C200.071 61.6138 199.424 59.5142 199.424 57.3657H210.154C210.203 58.6841 210.532 59.7583 211.143 60.5884C211.777 61.4185 212.595 62.0288 213.596 62.4194C214.597 62.7856 215.72 62.9688 216.965 62.9688C218.21 62.9688 219.248 62.7979 220.078 62.4561C220.908 62.1143 221.543 61.6504 221.982 61.0645C222.422 60.4541 222.642 59.7583 222.642 58.9771ZM259.626 61.8335C260.847 61.8335 261.909 61.6016 262.812 61.1377C263.715 60.6738 264.411 60.0269 264.899 59.1968C265.412 58.3423 265.668 57.3169 265.668 56.1206H276.435C276.435 59.0015 275.69 61.5405 274.201 63.7378C272.736 65.9351 270.759 67.6562 268.269 68.9014C265.778 70.1221 262.971 70.7324 259.846 70.7324C256.77 70.7324 254.084 70.2319 251.789 69.231C249.494 68.2056 247.578 66.7773 246.04 64.9463C244.501 63.1152 243.342 60.9912 242.561 58.5742C241.804 56.1328 241.425 53.4961 241.425 50.6641V49.7119C241.425 46.9043 241.804 44.2798 242.561 41.8384C243.342 39.397 244.501 37.2607 246.04 35.4297C247.578 33.5986 249.482 32.1826 251.752 31.1816C254.047 30.1562 256.733 29.6436 259.809 29.6436C263.056 29.6436 265.925 30.2661 268.415 31.5112C270.93 32.7563 272.895 34.5508 274.311 36.8945C275.727 39.2139 276.435 42.0093 276.435 45.2808H265.668C265.668 44.0112 265.437 42.876 264.973 41.875C264.533 40.8496 263.85 40.0439 262.922 39.458C262.019 38.8477 260.896 38.5425 259.553 38.5425C258.161 38.5425 257.014 38.8477 256.11 39.458C255.231 40.0439 254.56 40.8618 254.096 41.9116C253.632 42.9614 253.315 44.1577 253.144 45.5005C252.973 46.8188 252.888 48.2227 252.888 49.7119V50.6641C252.888 52.1777 252.973 53.6182 253.144 54.9854C253.315 56.3281 253.632 57.5122 254.096 58.5376C254.584 59.563 255.268 60.3687 256.147 60.9546C257.026 61.5405 258.186 61.8335 259.626 61.8335ZM306.095 60.5518V43.5596C306.095 42.3633 305.912 41.3379 305.546 40.4834C305.18 39.6289 304.606 38.9575 303.825 38.4692C303.043 37.981 302.03 37.7368 300.785 37.7368C299.735 37.7368 298.82 37.9199 298.039 38.2861C297.282 38.6523 296.696 39.1772 296.281 39.8608C295.89 40.5444 295.695 41.3867 295.695 42.3877H284.269C284.269 40.6055 284.672 38.9453 285.478 37.4072C286.283 35.8691 287.431 34.5142 288.92 33.3423C290.434 32.1704 292.24 31.2671 294.34 30.6323C296.439 29.9731 298.795 29.6436 301.408 29.6436C304.508 29.6436 307.267 30.1685 309.684 31.2183C312.125 32.2437 314.054 33.7939 315.47 35.8691C316.886 37.9199 317.594 40.5078 317.594 43.6328V60.2222C317.594 62.6147 317.729 64.4946 317.997 65.8618C318.29 67.2046 318.705 68.3765 319.242 69.3774V70H307.707C307.169 68.8525 306.767 67.4365 306.498 65.752C306.229 64.043 306.095 62.3096 306.095 60.5518ZM307.523 45.8301L307.597 52.1289H301.92C300.651 52.1289 299.552 52.2876 298.625 52.605C297.721 52.9224 296.989 53.3618 296.427 53.9233C295.866 54.4604 295.451 55.0952 295.182 55.8276C294.938 56.5356 294.816 57.3169 294.816 58.1714C294.816 58.9771 295.011 59.7095 295.402 60.3687C295.792 61.0034 296.33 61.5039 297.013 61.8701C297.697 62.2363 298.49 62.4194 299.394 62.4194C300.883 62.4194 302.152 62.1265 303.202 61.5405C304.276 60.9546 305.106 60.2466 305.692 59.4165C306.278 58.562 306.571 57.7686 306.571 57.0361L309.318 61.7969C308.878 62.7734 308.341 63.7866 307.707 64.8364C307.072 65.8618 306.266 66.8262 305.29 67.7295C304.313 68.6084 303.129 69.3286 301.737 69.8901C300.37 70.4517 298.722 70.7324 296.793 70.7324C294.303 70.7324 292.045 70.2319 290.019 69.231C287.992 68.2056 286.369 66.8018 285.148 65.0195C283.952 63.2373 283.354 61.1865 283.354 58.8672C283.354 56.792 283.732 54.9487 284.489 53.3374C285.246 51.7261 286.381 50.3589 287.895 49.2358C289.433 48.1128 291.361 47.2705 293.681 46.709C296 46.123 298.71 45.8301 301.811 45.8301H307.523ZM339.308 38.8354V70H327.845V30.376H338.612L339.308 38.8354ZM337.806 48.7964L334.95 48.8696C334.95 45.8911 335.316 43.2178 336.048 40.8496C336.781 38.4814 337.818 36.4673 339.161 34.8071C340.528 33.1226 342.152 31.8408 344.032 30.9619C345.936 30.083 348.036 29.6436 350.331 29.6436C352.186 29.6436 353.883 29.9121 355.421 30.4492C356.959 30.9863 358.277 31.853 359.376 33.0493C360.499 34.2212 361.354 35.7837 361.939 37.7368C362.525 39.6655 362.818 42.0459 362.818 44.8779V70H351.319V44.8413C351.319 43.1812 351.087 41.8994 350.624 40.9961C350.16 40.0928 349.476 39.458 348.573 39.0918C347.694 38.7256 346.62 38.5425 345.35 38.5425C344.007 38.5425 342.86 38.811 341.908 39.3481C340.956 39.8608 340.174 40.5811 339.564 41.5088C338.954 42.4365 338.502 43.5229 338.209 44.7681C337.94 46.0132 337.806 47.356 337.806 48.7964Z" fill="black"/>
<path d="M0 21C0 15.4772 4.47715 11 10 11H36C52.5685 11 66 24.4315 66 41V67C66 72.5228 61.5228 77 56 77H30C13.4315 77 0 63.5685 0 47V21Z" fill="url(#paint0_linear_202_217)"/>
<mask id="mask0_202_217" style="mask-type:luminance" maskUnits="userSpaceOnUse" x="13" y="24" width="40" height="40">
<path d="M13 24H53V64H13V24Z" fill="white"/>
</mask>
<g mask="url(#mask0_202_217)">
<path d="M14.224 31.9818V25.1849H21.0209" stroke="white" stroke-width="2.5" stroke-miterlimit="10"/>
</g>
<path d="M30.0093 41.0987H19.752V30.8413H30.0093V41.0987Z" stroke="white" stroke-width="2.5" stroke-miterlimit="10"/>
<path d="M46.1884 57.3485H35.931V47.0912H46.1884V57.3485Z" stroke="white" stroke-width="2.5" stroke-miterlimit="10"/>
<path d="M35.931 47.0913H30.0092V41.0987" stroke="white" stroke-width="2.5" stroke-miterlimit="10"/>
<path d="M30.0093 47.0913V52.0506H26.2455V57.3486" stroke="white" stroke-width="2.5" stroke-miterlimit="10"/>
<path d="M46.1884 47.0913V35.8851H40.8711" stroke="white" stroke-width="2.5" stroke-miterlimit="10"/>
<path d="M37.1415 42.3404V47.0912" stroke="white" stroke-width="2.5" stroke-miterlimit="10"/>
<path d="M42.0814 30.8414H46.1884" stroke="white" stroke-width="2.5" stroke-miterlimit="10" stroke-linecap="square"/>
<path d="M30.0092 35.1739H32.7552" stroke="white" stroke-width="2.5" stroke-miterlimit="10" stroke-linecap="square"/>
<path d="M23.6703 35.7757H26.091" stroke="white" stroke-width="2.5" stroke-miterlimit="10"/>
<path d="M39.6608 52.2199H42.0815" stroke="white" stroke-width="2.5" stroke-miterlimit="10"/>
<path d="M35.4757 30.8414H37.8964" stroke="white" stroke-width="2.5" stroke-miterlimit="10"/>
<path d="M35.9312 38.8392H38.3519" stroke="white" stroke-width="2.5" stroke-miterlimit="10"/>
<path d="M19.752 52.0506H22.1727" stroke="white" stroke-width="2.5" stroke-miterlimit="10"/>
<path d="M20.4192 47.0913H24.8805" stroke="white" stroke-width="2.5" stroke-miterlimit="10" stroke-linecap="square"/>
<path d="M30.0092 57.3486H20.9623" stroke="white" stroke-width="2.5" stroke-miterlimit="10" stroke-linecap="square"/>
<path d="M46.1884 41.4104H42.0814" stroke="white" stroke-width="2.5" stroke-miterlimit="10"/>
<mask id="mask1_202_217" style="mask-type:luminance" maskUnits="userSpaceOnUse" x="13" y="24" width="40" height="40">
<path d="M13 24H53V64H13V24Z" fill="white"/>
</mask>
<g mask="url(#mask1_202_217)">
<path d="M14.224 56.0183V62.8151H21.0209" stroke="white" stroke-width="2.5" stroke-miterlimit="10"/>
<path d="M51.776 31.9818V25.1849H44.9791" stroke="white" stroke-width="2.5" stroke-miterlimit="10"/>
<path d="M51.776 56.0183V62.8151H44.9791" stroke="white" stroke-width="2.5" stroke-miterlimit="10"/>
</g>
</g>
<defs>
<linearGradient id="paint0_linear_202_217" x1="5.59322" y1="18.2712" x2="61.5254" y2="83.7119" gradientUnits="userSpaceOnUse">
<stop stop-color="#55ABA6"/>
<stop offset="1" stop-color="#2DA01A" stop-opacity="0.89"/>
</linearGradient>
<clipPath id="clip0_202_217">
<rect width="367" height="88" fill="white"/>
</clipPath>
</defs>
</svg>
